@startuml
class DatasetMetaConfig {
+ split : str
+ subset : Optional[str]
+ languages : List[str]
+ language_map : Optional[Dict[str, str]]
}

class PartialDatasetFeatureConfig {
+ name : str
+ output_feature : str
+ language_feature : Optional[str]
}

class FullDatasetFeatureConfig {
+ input_feature : str
}

PartialDatasetFeatureConfig <|-- FullDatasetFeatureConfig

class DatasetConfig

FullDatasetFeatureConfig <|-- DatasetConfig
DatasetMetaConfig <|-- DatasetConfig

class ConstructionInputDatasetConfig

PartialDatasetFeatureConfig <|-- ConstructionInputDatasetConfig
DatasetMetaConfig <|-- ConstructionInputDatasetConfig

class SplitConfig {
+ eval_ratio : float
+ max_eval_size : int
}

class CoreConfig {
+ random_seed : int
+ cpus : int
}

class PreprocessingConfig {
+ output_dataset : FullDatasetFeatureConfig
+ input_datasets : List[ConstructionInputDatasetConfig]
+ samples : int
+ shuffle_buffer : int
+ hf_cache : Path
+ splits : SplitConfig
}

CoreConfig <|-- PreprocessingConfig
FullDatasetFeatureConfig -> PreprocessingConfig::output_dataset
ConstructionInputDatasetConfig --> PreprocessingConfig::input_datasets
SplitConfig -> PreprocessingConfig::splits

class EvaluationConfig {
+ evaluation_dataset : DatasetConfig
+ results_path : Path
}

CoreConfig <|-- EvaluationConfig

class TrainConfig {
+ train_dataset : DatasetConfig
}

EvaluationConfig <|-- TrainConfig
DatasetConfig -> EvaluationConfig::evaluation_dataset
DatasetConfig -> TrainConfig::train_dataset
@enduml